<svg id="图层_1" data-name="图层 1" xmlns="http://www.w3.org/2000/svg" viewBox="0 0 960 960"><defs><style>.cls-1{fill:#fff;stroke:#abaaaa;stroke-miterlimit:10;}.cls-2{fill:#7cafdf;}.cls-3{font-size:128.92px;fill:#6d6c6c;font-family:MicrosoftYaHei, Microsoft YaHei;}</style></defs><title>矢量智能对象</title><rect class="cls-1" width="960" height="960" rx="21" ry="21"/><path class="cls-2" d="M738.36,225.26H697v41.33a20.67,20.67,0,1,1-41.34,0V225.26H614.35a20.67,20.67,0,1,1,0-41.34h41.33V142.58a20.67,20.67,0,1,1,41.34,0v41.34h41.34a20.67,20.67,0,1,1,0,41.34Zm-124,72.33a31,31,0,1,1-31-31,31,31,0,0,1,31,31Zm-82.68-72.33H242.31v288c0-.14,45.25-202.8,122.71-202.8,51,0,102.93,156.73,135.28,204.11,0,0,25.36-102.69,69.11-103.35,43.28-.64,65.6,102,65.6,102h20.67V390.6a20.67,20.67,0,1,1,41.34,0V556a41.34,41.34,0,0,1-41.34,41.34H242.31A41.33,41.33,0,0,1,201,556V225.26a41.32,41.32,0,0,1,41.34-41.34H531.67a20.67,20.67,0,1,1,0,41.34Zm0,0"/><text class="cls-3" transform="translate(222.17 805.17)">上传图片</text></svg>